<?xml version="1.0" encoding="utf-8"?>
<!-- Generator: Adobe Illustrator 21.0.2, SVG Export Plug-In . SVG Version: 6.00 Build 0)  -->
<svg version="1.1" id="Calque_1" xmlns="http://www.w3.org/2000/svg" xmlns:xlink="http://www.w3.org/1999/xlink" x="0px" y="0px"
	 viewBox="0 0 104.7 31.5" style="enable-background:new 0 0 104.7 31.5;" xml:space="preserve">
<style type="text/css">
	.st0{fill:#50D872;}
	.st1{fill:url(#SVGID_1_);}
	.st2{fill:#020202;}
</style>
<title>NOCRM.IO</title>
<g>
	<circle class="st0" cx="80.9" cy="19.9" r="1.7"/>
	
		<linearGradient id="SVGID_1_" gradientUnits="userSpaceOnUse" x1="31.7022" y1="0.7356" x2="31.7022" y2="30.7356" gradientTransform="matrix(1 0 0 -1 0 31.28)">
		<stop  offset="0" style="stop-color:#4696ED"/>
		<stop  offset="0.1437" style="stop-color:#479AE6"/>
		<stop  offset="0.3562" style="stop-color:#48A5D2"/>
		<stop  offset="0.5178" style="stop-color:#4AB0BD"/>
		<stop  offset="0.6113" style="stop-color:#4BB6B1"/>
		<stop  offset="0.8972" style="stop-color:#4FCE84"/>
		<stop  offset="1" style="stop-color:#50D872"/>
	</linearGradient>
	<path class="st1" d="M31.7,30.5L31.7,30.5c-0.5,0-0.8-0.4-0.8-0.8V1.3c0-0.5,0.4-0.8,0.8-0.8l0,0c0.5,0,0.8,0.4,0.8,0.8v28.3
		C32.5,30.1,32.1,30.5,31.7,30.5z"/>
	<path class="st2" d="M20.1,9.3c-3.4,0-6.2,2.8-6.2,6.2c0,3.4,2.8,6.2,6.2,6.2s6.2-2.8,6.2-6.2C26.3,12.1,23.5,9.3,20.1,9.3z
		 M20.1,20.1c-2.5,0-4.4-2.1-4.4-4.6c0-2.6,2-4.6,4.4-4.6s4.4,2.1,4.4,4.6C24.6,18,22.6,20.1,20.1,20.1z"/>
	<path class="st2" d="M98,9.3c-3.4,0-6.2,2.8-6.2,6.2c0,3.4,2.8,6.2,6.2,6.2s6.2-2.8,6.2-6.2C104.1,12.1,101.4,9.3,98,9.3z M98,20.1
		c-2.5,0-4.4-2.1-4.4-4.6c0-2.6,2-4.6,4.4-4.6s4.4,2.1,4.4,4.6C102.4,18,100.4,20.1,98,20.1z"/>
	<g>
		<path class="st2" d="M42.9,21.9c-3.3,0-5.9-2.8-5.9-6.3c0-3.5,2.6-6.3,5.9-6.3c1.3,0,2.5,0.4,3.5,1.2c0.3,0.3,0.4,0.8,0.1,1.1
			c-0.3,0.3-0.8,0.4-1.1,0.1c-0.7-0.6-1.6-0.9-2.5-0.9c-2.4,0-4.3,2.1-4.3,4.7c0,2.6,1.9,4.7,4.3,4.7c1,0,1.9-0.3,2.7-1
			c0.3-0.3,0.8-0.2,1.1,0.1c0.3,0.3,0.2,0.8-0.1,1.1C45.6,21.4,44.3,21.9,42.9,21.9z"/>
	</g>
	<path class="st2" d="M69.9,9.3c-1.4,0-2.9,0.8-3.9,2.3c-0.7-1.4-2.1-2.3-3.7-2.3c-1.2,0-2.5,0.6-3.5,1.7v-0.3
		c0-0.4-0.4-0.8-0.8-0.8s-0.8,0.4-0.8,0.8v4.5c0,0,0,0,0,0c0,0.1,0,0.1,0,0.2v5.2c0,0.4,0.4,0.8,0.8,0.8s0.8-0.4,0.8-0.8v-5.2
		c0-3.1,2.1-4.5,3.5-4.5c1.5,0,2.6,1.1,2.6,2.6v1.6c0,0.1,0,0.2,0,0.3v5.2c0,0.4,0.4,0.8,0.8,0.8s0.8-0.4,0.8-0.8v-0.1
		c0,0,0,0,0-0.1v-5.2c0.1-3,2.1-4.4,3.5-4.4c1.5,0,2.6,1.1,2.6,2.6v7.2c0,0.4,0.4,0.8,0.8,0.8s0.8-0.4,0.8-0.8v-7.2
		C74.1,11.1,72.2,9.3,69.9,9.3z"/>
	<path class="st2" d="M6.5,9.3C5.2,9.3,4,9.9,3,10.9v-0.3c0-0.4-0.4-0.8-0.8-0.8s-0.8,0.4-0.8,0.8v4.5c0,0,0,0,0,0
		c0,0.1,0,0.1,0,0.1v6l1.6,0v-6c0-3.1,2.1-4.5,3.5-4.5c1.6,0,2.9,1.2,2.9,2.6v8h1.6v-8C10.9,11.1,8.9,9.3,6.5,9.3z"/>
	<g>
		<path class="st2" d="M88,21.4c-0.4,0-0.8-0.4-0.8-0.8V10.5c0-0.4,0.4-0.8,0.8-0.8s0.8,0.4,0.8,0.8v10.1C88.8,21,88.5,21.4,88,21.4
			z"/>
	</g>
	<g>
		<path class="st2" d="M88,6.7c-0.6,0-1-0.4-1-1V5.6c0-0.6,0.4-1,1-1s1,0.4,1,1v0.1C89,6.3,88.6,6.7,88,6.7z"/>
	</g>
	<path class="st2" d="M54.5,9.3c-1.2,0-2.5,0.6-3.5,1.7v-0.3c0-0.4-0.4-0.8-0.8-0.8s-0.8,0.4-0.8,0.8v4.5c0,0,0,0,0,0
		c0,0.1,0,0.1,0,0.1v5.2c0,0.4,0.4,0.8,0.8,0.8S51,21,51,20.6v-5.2c0-3.1,2.1-4.5,3.5-4.5c0.4,0,0.8-0.4,0.8-0.8S54.9,9.3,54.5,9.3z
		"/>
</g>
</svg>
