<?xml version="1.0" encoding="utf-8"?>
<!-- Generator: Adobe Illustrator 21.0.2, SVG Export Plug-In . SVG Version: 6.00 Build 0)  -->
<svg version="1.1" id="Calque_1" xmlns="http://www.w3.org/2000/svg" xmlns:xlink="http://www.w3.org/1999/xlink" x="0px" y="0px"
	 viewBox="0 0 104.7 31.5" style="enable-background:new 0 0 104.7 31.5;" xml:space="preserve">
<style type="text/css">
	.st0{fill:#020202;}
	.st1{clip-path:url(#SVGID_2_);}
	.st2{fill:#0677D9;}
	.st3{fill:#0678D8;}
	.st4{fill:#0778D8;}
	.st5{fill:#0779D7;}
	.st6{fill:#0879D7;}
	.st7{fill:#087AD6;}
	.st8{fill:#097BD5;}
	.st9{fill:#097BD4;}
	.st10{fill:#0A7CD4;}
	.st11{fill:#0A7CD3;}
	.st12{fill:#0A7DD3;}
	.st13{fill:#0B7DD2;}
	.st14{fill:#0B7ED2;}
	.st15{fill:#0C7FD1;}
	.st16{fill:#0C7FD0;}
	.st17{fill:#0D80CF;}
	.st18{fill:#0D81CF;}
	.st19{fill:#0E81CE;}
	.st20{fill:#0E82CD;}
	.st21{fill:#0F83CD;}
	.st22{fill:#0F83CC;}
	.st23{fill:#1084CB;}
	.st24{fill:#1185CA;}
	.st25{fill:#1186C9;}
	.st26{fill:#1286C9;}
	.st27{fill:#1287C8;}
	.st28{fill:#1388C7;}
	.st29{fill:#1489C6;}
	.st30{fill:#148AC5;}
	.st31{fill:#158AC4;}
	.st32{fill:#158BC3;}
	.st33{fill:#168CC3;}
	.st34{fill:#178DC2;}
	.st35{fill:#178EC1;}
	.st36{fill:#188FC0;}
	.st37{fill:#1990BF;}
	.st38{fill:#1A91BE;}
	.st39{fill:#1A91BD;}
	.st40{fill:#1B92BC;}
	.st41{fill:#1C93BB;}
	.st42{fill:#1C94BA;}
	.st43{fill:#1D95B9;}
	.st44{fill:#1E96B8;}
	.st45{fill:#1F97B7;}
	.st46{fill:#1F98B6;}
	.st47{fill:#2099B5;}
	.st48{fill:#219AB4;}
	.st49{fill:#229BB3;}
	.st50{fill:#229CB1;}
	.st51{fill:#239DB0;}
	.st52{fill:#249EAF;}
	.st53{fill:#259FAE;}
	.st54{fill:#26A0AD;}
	.st55{fill:#26A1AC;}
	.st56{fill:#27A3AB;}
	.st57{fill:#28A4AA;}
	.st58{fill:#29A5A8;}
	.st59{fill:#2AA6A7;}
	.st60{fill:#2BA7A6;}
	.st61{fill:#2BA8A5;}
	.st62{fill:#2CA9A4;}
	.st63{fill:#2DAAA3;}
	.st64{fill:#2EABA1;}
	.st65{fill:#2FADA0;}
	.st66{fill:#30AE9F;}
	.st67{fill:#31AF9E;}
	.st68{fill:#32B09C;}
	.st69{fill:#32B19B;}
	.st70{fill:#33B29A;}
	.st71{fill:#34B499;}
	.st72{fill:#35B597;}
	.st73{fill:#36B696;}
	.st74{fill:#37B795;}
	.st75{fill:#38B993;}
	.st76{fill:#39BA92;}
	.st77{fill:#3ABB91;}
	.st78{fill:#3BBC8F;}
	.st79{fill:#3CBD8E;}
	.st80{fill:#3DBF8D;}
	.st81{fill:#3EC08B;}
	.st82{fill:#3FC18A;}
	.st83{fill:#40C389;}
	.st84{fill:#41C487;}
	.st85{fill:#42C586;}
	.st86{fill:#43C685;}
	.st87{fill:#44C883;}
	.st88{fill:#45C982;}
	.st89{fill:#46CA80;}
	.st90{fill:#47CC7F;}
	.st91{fill:#48CD7E;}
	.st92{fill:#49CE7C;}
	.st93{fill:#4AD07B;}
	.st94{fill:#4BD179;}
	.st95{fill:#4CD278;}
	.st96{fill:#4DD476;}
	.st97{fill:#4ED575;}
	.st98{fill:#4FD773;}
	.st99{fill:#50D872;}
</style>
<title>logo</title>
<path class="st0" d="M10.3,12.8c-0.1-0.5-0.3-1-0.6-1.4c-0.3-0.4-0.7-0.8-1.2-1C7.9,10.1,7.3,10,6.7,10c-0.5,0-0.9,0.1-1.3,0.2
	c-0.4,0.1-0.8,0.3-1.2,0.6c-0.4,0.3-0.7,0.6-1,1c-0.3,0.4-0.5,0.8-0.7,1.3l0,0c0-0.2,0-0.4,0-0.7c0-0.2,0-0.5,0-0.8s0-0.8,0-1
	S2,10.4,2,10.7s0,0.8,0,1v0.8c0,0.2,0,0.4,0,0.6v7.9h0.5v-5.4c0-0.7,0.1-1.5,0.3-2.2c0.2-0.6,0.5-1.1,0.9-1.6c0.7-0.9,1.8-1.4,3-1.4
	c0.6,0,1.1,0.1,1.6,0.4c0.4,0.3,0.7,0.6,1,1c0.3,0.4,0.4,0.9,0.5,1.3C9.9,13.6,10,14,10,14.5v6.3h0.5v-6.4
	C10.5,13.9,10.4,13.4,10.3,12.8z"/>
<path class="st0" d="M11,21.4H9.4v-6.9c0-0.4,0-0.9-0.1-1.3c-0.1-0.4-0.2-0.8-0.4-1.1c-0.2-0.3-0.5-0.6-0.8-0.8
	c-0.9-0.4-1.9-0.4-2.8,0c-0.4,0.2-0.8,0.5-1.1,0.9c-0.4,0.4-0.6,0.9-0.8,1.4c-0.2,0.6-0.3,1.3-0.3,2v5.8H1.4v-8.5c0-0.2,0-0.4,0-0.6
	v-1c0-0.2,0-0.5,0-0.7c0-0.2,0-0.5,0.2-0.6c0.3-0.2,0.6-0.2,0.9,0c0.2,0.1,0.4,0.4,0.4,0.6v0.6c0.3-0.3,0.6-0.6,0.9-0.8
	c0.4-0.3,0.9-0.5,1.3-0.7c0.5-0.2,1-0.2,1.5-0.2c0.7,0,1.4,0.1,2.1,0.4c0.5,0.3,1,0.7,1.4,1.2c0.3,0.5,0.6,1.1,0.7,1.6
	c0.1,0.6,0.2,1.2,0.2,1.8L11,21.4z"/>
<path class="st0" d="M25.6,15.5c0,0.8-0.1,1.5-0.4,2.3c-0.5,1.3-1.6,2.4-2.9,2.9c-0.7,0.3-1.5,0.4-2.2,0.4c-0.8,0-1.5-0.1-2.2-0.4
	c-1.3-0.5-2.4-1.6-2.9-2.9c-0.3-0.7-0.4-1.5-0.4-2.3c0-0.8,0.1-1.5,0.4-2.3c0.3-0.7,0.6-1.3,1.1-1.8c0.5-0.5,1.1-0.9,1.8-1.1
	c0.7-0.3,1.5-0.4,2.2-0.4c0.8,0,1.5,0.1,2.2,0.4c0.7,0.3,1.3,0.7,1.8,1.1c0.5,0.5,0.9,1.1,1.1,1.8C25.5,14,25.6,14.8,25.6,15.5z
	 M25.1,15.5c0-0.7-0.1-1.4-0.3-2c-0.2-0.6-0.6-1.2-1-1.6c-0.4-0.5-1-0.8-1.6-1.1c-0.7-0.3-1.4-0.4-2.1-0.4c-0.7,0-1.4,0.1-2.1,0.4
	c-0.6,0.3-1.1,0.6-1.6,1.1c-0.4,0.5-0.8,1-1,1.6c-0.2,0.6-0.3,1.3-0.3,2c0,0.7,0.1,1.4,0.3,2c0.2,0.6,0.6,1.2,1,1.6
	c0.4,0.5,1,0.9,1.6,1.1c0.7,0.3,1.4,0.4,2.1,0.4c0.7,0,1.4-0.1,2.1-0.4c1.2-0.5,2.1-1.5,2.6-2.8C25,16.9,25.1,16.2,25.1,15.5z"/>
<path class="st0" d="M20.1,21.7c-0.8,0-1.7-0.1-2.4-0.5c-1.5-0.6-2.6-1.8-3.2-3.2c-0.3-0.8-0.5-1.6-0.5-2.5c0-0.8,0.1-1.7,0.4-2.5
	c0.3-0.7,0.7-1.4,1.3-1.9c0.6-0.5,1.2-1,1.9-1.3c1.6-0.6,3.3-0.6,4.9,0c0.7,0.3,1.4,0.7,1.9,1.3c0.5,0.6,1,1.2,1.3,1.9
	c0.6,1.6,0.6,3.3,0,4.9c-0.6,1.5-1.7,2.7-3.2,3.2C21.7,21.6,20.9,21.7,20.1,21.7z M20.1,10.9c-0.6,0-1.3,0.1-1.9,0.4
	c-0.5,0.2-1,0.6-1.4,1c-0.4,0.4-0.7,0.9-0.8,1.4c-0.2,0.6-0.3,1.2-0.3,1.8c0,0.6,0.1,1.2,0.3,1.8c0.4,1.1,1.2,2,2.3,2.4
	c1.2,0.5,2.5,0.5,3.7,0c1.1-0.5,1.9-1.3,2.3-2.4c0.2-0.6,0.3-1.2,0.3-1.8c0-0.6-0.1-1.2-0.3-1.8c-0.2-0.5-0.5-1-0.9-1.5
	c-0.4-0.4-0.9-0.8-1.4-1C21.4,11,20.8,10.9,20.1,10.9L20.1,10.9z"/>
<path class="st0" d="M44.6,20.4c-0.5,0.2-1.1,0.3-1.7,0.3c-0.7,0-1.4-0.1-2-0.4c-0.6-0.3-1.1-0.6-1.5-1.1c-0.4-0.5-0.8-1-1-1.6
	c-0.5-1.3-0.5-2.7,0-3.9c0.2-0.6,0.6-1.2,1-1.6c0.9-1,2.2-1.6,3.5-1.6c0.6,0,1.1,0.1,1.7,0.3c0.4,0.2,0.7,0.4,1.1,0.6
	c0.2,0.2,0.7-0.1,0.4-0.3c-0.4-0.3-0.8-0.6-1.2-0.7c-0.6-0.2-1.3-0.3-1.9-0.3c-0.7,0-1.5,0.1-2.2,0.4c-1.3,0.6-2.3,1.7-2.8,3
	c-0.5,1.5-0.5,3,0,4.5c0.5,1.3,1.5,2.4,2.8,2.9c0.7,0.3,1.4,0.4,2.2,0.4c0.6,0,1.3-0.1,1.9-0.3c0.5-0.2,1-0.4,1.4-0.8
	c0.1-0.1,0.1-0.2,0-0.3c-0.1-0.1-0.2-0.1-0.3,0c0,0,0,0-0.1,0.1C45.4,20.1,45,20.3,44.6,20.4z"/>
<path class="st0" d="M42.9,21.7c-0.8,0-1.6-0.1-2.4-0.5c-1.4-0.6-2.6-1.8-3.1-3.2c-0.6-1.6-0.6-3.3,0-4.9c0.6-1.5,1.7-2.6,3.1-3.2
	c1.4-0.6,3-0.6,4.5-0.1c0.5,0.2,1,0.5,1.4,0.8c0.2,0.2,0.3,0.5,0.2,0.8c-0.1,0.3-0.3,0.5-0.6,0.6c-0.3,0.1-0.6,0-0.8-0.2
	c-0.3-0.2-0.6-0.4-0.9-0.5c-1-0.4-2.2-0.4-3.2,0.1c-0.5,0.2-1,0.6-1.3,1c-0.4,0.4-0.7,0.9-0.9,1.5c-0.4,1.2-0.4,2.4,0,3.6
	c0.2,0.5,0.5,1,0.9,1.5c0.4,0.4,0.8,0.8,1.3,1c1.1,0.5,2.2,0.5,3.3,0.1l0,0c0.4-0.1,0.8-0.3,1.1-0.6c0.3-0.3,0.8-0.3,1.1,0
	c0,0,0,0,0,0c0.3,0.3,0.3,0.8,0,1.1c0,0,0,0,0,0c-0.5,0.4-1,0.7-1.6,0.9C44.3,21.6,43.6,21.7,42.9,21.7z M46.2,20.1L46.2,20.1z
	 M46,11L46,11z"/>
<path class="st0" d="M54.2,10c-0.8,0-1.5,0.3-2.2,0.7c-0.7,0.6-1.3,1.4-1.5,2.4l0,0c0-0.2,0-0.4,0-0.7s0-0.5,0-0.8s0-0.8,0-1
	s-0.5-0.2-0.5,0s0,0.8,0,1v0.8c0,0.2,0,0.4,0,0.6v7.6c0,0.4,0.5,0.4,0.5,0v-5.3c0-0.6,0.1-1.2,0.2-1.8c0.1-0.6,0.3-1.1,0.6-1.6
	c0.3-0.5,0.7-0.9,1.2-1.2c0.5-0.3,1.1-0.5,1.7-0.4h0.1c0.2,0,0.2-0.4,0-0.4L54.2,10z"/>
<path class="st0" d="M50.2,21.4c-0.2,0-0.4-0.1-0.6-0.2c-0.1-0.2-0.2-0.4-0.2-0.6v-7.6c0-0.2,0-0.4,0-0.6v-1c0-0.3,0-0.6,0-0.8
	c0-0.2,0.1-0.4,0.2-0.6c0.3-0.2,0.6-0.2,0.9,0c0.2,0.1,0.4,0.3,0.4,0.6v0.3c0.2-0.2,0.4-0.5,0.7-0.7c0.7-0.5,1.6-0.8,2.5-0.8h0.2
	c0.2,0,0.4,0.1,0.6,0.3c0.1,0.1,0.2,0.3,0.2,0.5c0,0.4-0.3,0.7-0.7,0.7c0,0,0,0,0,0h-0.1c-0.5,0-1,0.1-1.4,0.4c-0.4,0.3-0.7,0.6-1,1
	c-0.3,0.4-0.5,0.9-0.6,1.4c-0.1,0.5-0.2,1.1-0.2,1.6v5.2C51,21,50.7,21.4,50.2,21.4z"/>
<path class="st0" d="M72.8,11.4c-0.3-0.4-0.7-0.8-1.2-1c-0.6-0.3-1.2-0.4-1.8-0.4c-0.9,0-1.8,0.3-2.5,0.8c-0.8,0.6-1.3,1.5-1.6,2.4
	l0,0c-0.1-0.4-0.2-0.9-0.4-1.3c-0.2-0.4-0.4-0.7-0.7-1c-0.3-0.3-0.6-0.5-1-0.7c-0.5-0.2-1-0.3-1.5-0.3c-0.9,0-1.7,0.3-2.4,0.8
	c-0.4,0.3-0.7,0.6-0.9,1c-0.3,0.4-0.5,0.8-0.6,1.3l0,0c0-0.2,0-0.4,0-0.7v-0.8c0-0.3,0-0.8,0-1s-0.5-0.2-0.5,0s0,0.8,0,1v0.8
	c0,0.2,0,0.4,0,0.6v7.6c0,0.1,0.1,0.2,0.2,0.2s0.2-0.1,0.2-0.2v-5c0-0.7,0.1-1.5,0.3-2.2c0.2-0.6,0.5-1.1,0.8-1.6
	c0.3-0.4,0.8-0.8,1.3-1c0.5-0.2,1-0.4,1.5-0.4c0.5,0,1.1,0.1,1.5,0.4c0.4,0.2,0.8,0.6,1,1c0.2,0.4,0.4,0.9,0.5,1.3
	c0.1,0.5,0.1,0.9,0.1,1.4v6.1c0,0.4,0.5,0.4,0.5,0v-5c0-0.7,0.1-1.5,0.3-2.2c0.1-0.6,0.4-1.2,0.7-1.7c0.3-0.4,0.8-0.8,1.3-1
	c0.5-0.2,1-0.4,1.6-0.4c0.5,0,1.1,0.1,1.6,0.4c0.4,0.3,0.7,0.6,1,1c0.2,0.4,0.4,0.9,0.5,1.3C73,13.6,73,14,73,14.5v6.1
	c0,0.1,0.1,0.2,0.2,0.2s0.2-0.1,0.2-0.2v-6.1c0-0.5-0.1-1.1-0.2-1.6C73.3,12.3,73.1,11.8,72.8,11.4z"/>
<path class="st0" d="M65.6,21.4c-0.2,0-0.4-0.1-0.6-0.3c-0.1-0.2-0.2-0.4-0.2-0.6v-6c0-0.4,0-0.9-0.1-1.3c-0.1-0.4-0.2-0.8-0.4-1.1
	c-0.2-0.3-0.5-0.6-0.8-0.8c-0.8-0.4-1.7-0.4-2.5,0c-0.4,0.2-0.8,0.5-1.1,0.9c-0.3,0.4-0.6,0.9-0.8,1.4c-0.2,0.6-0.3,1.3-0.3,2v5
	c0,0.4-0.4,0.8-0.8,0.8s-0.8-0.4-0.8-0.8c0,0,0,0,0,0v-7.6c0-0.2,0-0.4,0-0.6v-1c0-0.2,0-0.6,0-0.7c0-0.2,0.1-0.5,0.3-0.6
	c0.3-0.2,0.6-0.2,0.9,0c0.2,0.1,0.4,0.4,0.4,0.6v0.5c0.2-0.3,0.5-0.5,0.8-0.8c0.4-0.3,0.8-0.5,1.3-0.7c1-0.3,2.1-0.3,3.1,0.1
	c0.5,0.2,0.9,0.5,1.2,0.8c0.3,0.3,0.6,0.7,0.8,1.1c0.3-0.5,0.6-1,1.1-1.4c0.8-0.6,1.8-1,2.8-1c0.7,0,1.4,0.1,2,0.5
	c0.5,0.3,1,0.7,1.3,1.2l0,0c0.3,0.5,0.6,1.1,0.7,1.6c0.1,0.6,0.2,1.2,0.2,1.8v6.1c0,0.4-0.4,0.8-0.8,0.8s-0.8-0.4-0.8-0.8
	c0,0,0,0,0,0v-6c0-0.4-0.1-0.9-0.1-1.3c-0.1-0.4-0.2-0.8-0.4-1.1c-0.2-0.3-0.5-0.6-0.8-0.8c-0.8-0.4-1.8-0.4-2.6,0
	c-0.4,0.2-0.8,0.5-1.1,0.9c-0.3,0.4-0.6,0.9-0.8,1.4c-0.2,0.6-0.3,1.3-0.3,2v5C66.4,21,66,21.4,65.6,21.4z M58.3,10.5L58.3,10.5z"/>
<path class="st0" d="M88,5.1c-0.1,0-0.3,0.1-0.4,0.2c-0.1,0.1-0.2,0.3-0.2,0.4c0,0.2,0,0.3,0.2,0.4c0.1,0.1,0.2,0.2,0.4,0.2
	c0.1,0,0.3-0.1,0.4-0.2c0.1-0.1,0.2-0.3,0.2-0.4c0-0.2-0.1-0.3-0.2-0.4C88.3,5.2,88.1,5.1,88,5.1z"/>
<path class="st0" d="M88,6.8c-0.3,0-0.6-0.1-0.8-0.3C87,6.3,86.9,6,86.9,5.7c0-0.3,0.1-0.6,0.3-0.8c0.4-0.4,1.1-0.4,1.5,0
	c0,0,0,0,0,0c0.2,0.2,0.3,0.5,0.3,0.8c0,0.3-0.1,0.6-0.3,0.8C88.5,6.7,88.3,6.8,88,6.8z"/>
<path class="st0" d="M88.3,20.5v-10c0-0.4-0.5-0.4-0.5,0v10c0,0.1,0.1,0.3,0.3,0.3C88.1,20.8,88.3,20.7,88.3,20.5z"/>
<path class="st0" d="M88,21.4c-0.2,0-0.4-0.1-0.6-0.2c-0.2-0.2-0.2-0.4-0.2-0.6v-10c0-0.4,0.3-0.8,0.7-0.9c0,0,0,0,0.1,0
	c0.5,0,0.8,0.4,0.8,0.8c0,0,0,0,0,0v10C88.8,21,88.5,21.4,88,21.4C88,21.4,88,21.4,88,21.4z"/>
<path class="st0" d="M103.2,13.3c-0.3-0.7-0.7-1.3-1.2-1.8c-0.5-0.5-1.1-0.9-1.8-1.1C99.5,10.1,98.8,10,98,10
	c-0.8,0-1.5,0.1-2.2,0.4c-0.7,0.3-1.3,0.7-1.8,1.1c-0.5,0.5-0.9,1.1-1.1,1.8c-0.3,0.7-0.4,1.5-0.4,2.3c0,0.8,0.1,1.5,0.4,2.3
	c0.5,1.3,1.5,2.4,2.9,2.9c0.7,0.3,1.5,0.4,2.2,0.4c0.8,0,1.5-0.1,2.2-0.4c1.3-0.5,2.4-1.6,2.9-2.9c0.3-0.7,0.4-1.5,0.4-2.3
	C103.6,14.8,103.4,14,103.2,13.3z M102.7,17.5c-0.4,1.2-1.4,2.2-2.6,2.8c-0.7,0.3-1.4,0.4-2.1,0.4c-0.7,0-1.4-0.1-2.1-0.4
	c-0.6-0.3-1.1-0.6-1.6-1.1c-0.4-0.5-0.8-1-1-1.6c-0.2-0.6-0.3-1.3-0.3-2c0-0.7,0.1-1.4,0.3-2c0.2-0.6,0.6-1.2,1-1.6
	c0.4-0.5,1-0.8,1.6-1.1c0.7-0.3,1.4-0.4,2.1-0.4c0.7,0,1.4,0.1,2.1,0.4c0.6,0.3,1.1,0.6,1.6,1.1c0.4,0.5,0.8,1,1,1.6
	c0.2,0.6,0.3,1.3,0.3,2C103.1,16.2,103,16.9,102.7,17.5z"/>
<path class="st0" d="M98,21.7c-0.8,0-1.7-0.1-2.4-0.5c-1.5-0.6-2.6-1.8-3.2-3.2c-0.3-0.8-0.4-1.6-0.4-2.5c0-0.8,0.1-1.7,0.4-2.5
	c0.3-0.7,0.7-1.4,1.3-1.9c0.5-0.5,1.2-1,1.9-1.3c1.6-0.6,3.3-0.6,4.9,0c0.7,0.3,1.4,0.7,1.9,1.3c0.5,0.6,1,1.2,1.3,1.9
	c0.3,0.8,0.4,1.6,0.4,2.5c0,0.8-0.1,1.7-0.4,2.5c-0.6,1.5-1.7,2.7-3.2,3.2C99.7,21.6,98.8,21.7,98,21.7z M98,10.9
	c-0.6,0-1.3,0.1-1.9,0.4c-0.5,0.2-1,0.6-1.4,1c-0.4,0.4-0.7,0.9-0.9,1.5c-0.2,0.6-0.3,1.2-0.3,1.8c0,0.6,0.1,1.2,0.3,1.8
	c0.2,0.5,0.5,1,0.9,1.5c0.4,0.4,0.9,0.8,1.4,1c1.2,0.5,2.5,0.5,3.7,0c0.5-0.2,1-0.6,1.4-1c0.4-0.4,0.7-0.9,0.9-1.5
	c0.2-0.6,0.3-1.2,0.3-1.8c0-0.6-0.1-1.2-0.3-1.8c-0.2-0.5-0.5-1-0.9-1.5c-0.4-0.4-0.9-0.8-1.4-1C99.3,11,98.6,10.9,98,10.9L98,10.9z
	"/>
<g>
	<defs>
		<path id="SVGID_1_" d="M31.7,0.6L31.7,0.6c0.4,0,0.8,0.4,0.8,0.8v28.4c0,0.4-0.4,0.8-0.8,0.8h0c-0.4,0-0.8-0.4-0.8-0.8V1.4
			C30.9,0.9,31.2,0.6,31.7,0.6z"/>
	</defs>
	<clipPath id="SVGID_2_">
		<use xlink:href="#SVGID_1_"  style="overflow:visible;"/>
	</clipPath>
	<g class="st1">
		<rect x="30.9" y="30.1" class="st2" width="1.6" height="0.4"/>
		<rect x="30.9" y="29.8" class="st2" width="1.6" height="0.3"/>
		<rect x="30.9" y="29.5" class="st2" width="1.6" height="0.3"/>
		<rect x="30.9" y="29.2" class="st2" width="1.6" height="0.3"/>
		<rect x="30.9" y="28.9" class="st3" width="1.6" height="0.3"/>
		<rect x="30.9" y="28.6" class="st4" width="1.6" height="0.3"/>
		<rect x="30.9" y="28.4" class="st4" width="1.6" height="0.3"/>
		<rect x="30.9" y="28.1" class="st5" width="1.6" height="0.3"/>
		<rect x="30.9" y="27.8" class="st5" width="1.6" height="0.3"/>
		<rect x="30.9" y="27.5" class="st6" width="1.6" height="0.3"/>
		<rect x="30.9" y="27.2" class="st7" width="1.6" height="0.3"/>
		<rect x="30.9" y="26.9" class="st7" width="1.6" height="0.3"/>
		<rect x="30.9" y="26.6" class="st8" width="1.6" height="0.3"/>
		<rect x="30.9" y="26.3" class="st9" width="1.6" height="0.3"/>
		<rect x="30.9" y="26" class="st10" width="1.6" height="0.3"/>
		<rect x="30.9" y="25.8" class="st11" width="1.6" height="0.3"/>
		<rect x="30.9" y="25.5" class="st12" width="1.6" height="0.3"/>
		<rect x="30.9" y="25.2" class="st13" width="1.6" height="0.3"/>
		<rect x="30.9" y="24.9" class="st14" width="1.6" height="0.3"/>
		<rect x="30.9" y="24.6" class="st15" width="1.6" height="0.3"/>
		<rect x="30.9" y="24.3" class="st16" width="1.6" height="0.3"/>
		<rect x="30.9" y="24" class="st17" width="1.6" height="0.3"/>
		<rect x="30.9" y="23.7" class="st18" width="1.6" height="0.3"/>
		<rect x="30.9" y="23.5" class="st19" width="1.6" height="0.3"/>
		<rect x="30.9" y="23.2" class="st20" width="1.6" height="0.3"/>
		<rect x="30.9" y="22.9" class="st21" width="1.6" height="0.3"/>
		<rect x="30.9" y="22.6" class="st22" width="1.6" height="0.3"/>
		<rect x="30.9" y="22.3" class="st23" width="1.6" height="0.3"/>
		<rect x="30.9" y="22" class="st24" width="1.6" height="0.3"/>
		<rect x="30.9" y="21.7" class="st25" width="1.6" height="0.3"/>
		<rect x="30.9" y="21.4" class="st26" width="1.6" height="0.3"/>
		<rect x="30.9" y="21.2" class="st27" width="1.6" height="0.3"/>
		<rect x="30.9" y="20.9" class="st28" width="1.6" height="0.3"/>
		<rect x="30.9" y="20.6" class="st29" width="1.6" height="0.3"/>
		<rect x="30.9" y="20.3" class="st30" width="1.6" height="0.3"/>
		<rect x="30.9" y="20" class="st31" width="1.6" height="0.3"/>
		<rect x="30.9" y="19.7" class="st32" width="1.6" height="0.3"/>
		<rect x="30.9" y="19.4" class="st33" width="1.6" height="0.3"/>
		<rect x="30.9" y="19.1" class="st34" width="1.6" height="0.3"/>
		<rect x="30.9" y="18.9" class="st35" width="1.6" height="0.3"/>
		<rect x="30.9" y="18.6" class="st36" width="1.6" height="0.3"/>
		<rect x="30.9" y="18.3" class="st37" width="1.6" height="0.3"/>
		<rect x="30.9" y="18" class="st38" width="1.6" height="0.3"/>
		<rect x="30.9" y="17.7" class="st39" width="1.6" height="0.3"/>
		<rect x="30.9" y="17.4" class="st40" width="1.6" height="0.3"/>
		<rect x="30.9" y="17.1" class="st41" width="1.6" height="0.3"/>
		<rect x="30.9" y="16.8" class="st42" width="1.6" height="0.3"/>
		<rect x="30.9" y="16.5" class="st43" width="1.6" height="0.3"/>
		<rect x="30.9" y="16.3" class="st44" width="1.6" height="0.3"/>
		<rect x="30.9" y="16" class="st45" width="1.6" height="0.3"/>
		<rect x="30.9" y="15.7" class="st46" width="1.6" height="0.3"/>
		<rect x="30.9" y="15.4" class="st47" width="1.6" height="0.3"/>
		<rect x="30.9" y="15.1" class="st48" width="1.6" height="0.3"/>
		<rect x="30.9" y="14.8" class="st49" width="1.6" height="0.3"/>
		<rect x="30.9" y="14.5" class="st50" width="1.6" height="0.3"/>
		<rect x="30.9" y="14.2" class="st51" width="1.6" height="0.3"/>
		<rect x="30.9" y="14" class="st52" width="1.6" height="0.3"/>
		<rect x="30.9" y="13.7" class="st53" width="1.6" height="0.3"/>
		<rect x="30.9" y="13.4" class="st54" width="1.6" height="0.3"/>
		<rect x="30.9" y="13.1" class="st55" width="1.6" height="0.3"/>
		<rect x="30.9" y="12.8" class="st56" width="1.6" height="0.3"/>
		<rect x="30.9" y="12.5" class="st57" width="1.6" height="0.3"/>
		<rect x="30.9" y="12.2" class="st58" width="1.6" height="0.3"/>
		<rect x="30.9" y="11.9" class="st59" width="1.6" height="0.3"/>
		<rect x="30.9" y="11.7" class="st60" width="1.6" height="0.3"/>
		<rect x="30.9" y="11.4" class="st61" width="1.6" height="0.3"/>
		<rect x="30.9" y="11.1" class="st62" width="1.6" height="0.3"/>
		<rect x="30.9" y="10.8" class="st63" width="1.6" height="0.3"/>
		<rect x="30.9" y="10.5" class="st64" width="1.6" height="0.3"/>
		<rect x="30.9" y="10.2" class="st65" width="1.6" height="0.3"/>
		<rect x="30.9" y="9.9" class="st66" width="1.6" height="0.3"/>
		<rect x="30.9" y="9.6" class="st67" width="1.6" height="0.3"/>
		<rect x="30.9" y="9.4" class="st68" width="1.6" height="0.3"/>
		<rect x="30.9" y="9.1" class="st69" width="1.6" height="0.3"/>
		<rect x="30.9" y="8.8" class="st70" width="1.6" height="0.3"/>
		<rect x="30.9" y="8.5" class="st71" width="1.6" height="0.3"/>
		<rect x="30.9" y="8.2" class="st72" width="1.6" height="0.3"/>
		<rect x="30.9" y="7.9" class="st73" width="1.6" height="0.3"/>
		<rect x="30.9" y="7.6" class="st74" width="1.6" height="0.3"/>
		<rect x="30.9" y="7.3" class="st75" width="1.6" height="0.3"/>
		<rect x="30.9" y="7" class="st76" width="1.6" height="0.3"/>
		<rect x="30.9" y="6.8" class="st77" width="1.6" height="0.3"/>
		<rect x="30.9" y="6.5" class="st78" width="1.6" height="0.3"/>
		<rect x="30.9" y="6.2" class="st79" width="1.6" height="0.3"/>
		<rect x="30.9" y="5.9" class="st80" width="1.6" height="0.3"/>
		<rect x="30.9" y="5.6" class="st81" width="1.6" height="0.3"/>
		<rect x="30.9" y="5.3" class="st82" width="1.6" height="0.3"/>
		<rect x="30.9" y="5" class="st83" width="1.6" height="0.3"/>
		<rect x="30.9" y="4.7" class="st84" width="1.6" height="0.3"/>
		<rect x="30.9" y="4.5" class="st85" width="1.6" height="0.3"/>
		<rect x="30.9" y="4.2" class="st86" width="1.6" height="0.3"/>
		<rect x="30.9" y="3.9" class="st87" width="1.6" height="0.3"/>
		<rect x="30.9" y="3.6" class="st88" width="1.6" height="0.3"/>
		<rect x="30.9" y="3.3" class="st89" width="1.6" height="0.3"/>
		<rect x="30.9" y="3" class="st90" width="1.6" height="0.3"/>
		<rect x="30.9" y="2.7" class="st91" width="1.6" height="0.3"/>
		<rect x="30.9" y="2.4" class="st92" width="1.6" height="0.3"/>
		<rect x="30.9" y="2.2" class="st93" width="1.6" height="0.3"/>
		<rect x="30.9" y="1.9" class="st94" width="1.6" height="0.3"/>
		<rect x="30.9" y="1.6" class="st95" width="1.6" height="0.3"/>
		<rect x="30.9" y="1.3" class="st96" width="1.6" height="0.3"/>
		<rect x="30.9" y="1" class="st97" width="1.6" height="0.3"/>
		<rect x="30.9" y="0.7" class="st98" width="1.6" height="0.3"/>
		<rect x="30.9" y="0.6" class="st99" width="1.6" height="0.1"/>
	</g>
</g>
<circle class="st99" cx="80.9" cy="19.8" r="1.7"/>
</svg>
